<svg width="24" height="24" viewBox="0 0 24 24" fill="none" xmlns="http://www.w3.org/2000/svg">
<path d="M12 0.500488C15.05 0.500488 17.9751 1.71209 20.1317 3.86876C22.2884 6.02543 23.5 8.9505 23.5 12.0005C23.5 15.0505 22.2884 17.9755 20.1317 20.1322C17.9751 22.2889 15.05 23.5005 12 23.5005C8.95001 23.5005 6.02494 22.2889 3.86827 20.1322C1.7116 17.9755 0.5 15.0505 0.5 12.0005C0.5 8.9505 1.7116 6.02543 3.86827 3.86876C6.02494 1.71209 8.95001 0.500488 12 0.500488ZM10.5674 14.2693L8.01279 11.713C7.9212 11.6214 7.81248 11.5488 7.69282 11.4992C7.57316 11.4496 7.44491 11.4241 7.31539 11.4241C7.18588 11.4241 7.05763 11.4496 6.93797 11.4992C6.81831 11.5488 6.70958 11.6214 6.618 11.713C6.43304 11.8979 6.32913 12.1488 6.32913 12.4104C6.32913 12.672 6.43304 12.9228 6.618 13.1078L9.87086 16.3606C9.96218 16.4527 10.0708 16.5257 10.1905 16.5756C10.3102 16.6254 10.4386 16.6511 10.5683 16.6511C10.6979 16.6511 10.8263 16.6254 10.946 16.5756C11.0657 16.5257 11.1743 16.4527 11.2656 16.3606L18.0014 9.62327C18.0942 9.53207 18.168 9.4234 18.2186 9.30352C18.2692 9.18364 18.2955 9.05493 18.2962 8.92481C18.2968 8.79469 18.2716 8.66574 18.2221 8.54539C18.1726 8.42505 18.0998 8.31569 18.0079 8.22363C17.9159 8.13157 17.8066 8.05862 17.6864 8.009C17.5661 7.95938 17.4371 7.93406 17.307 7.93451C17.1769 7.93497 17.0482 7.96118 16.9282 8.01163C16.8083 8.06209 16.6995 8.13579 16.6082 8.22849L10.5674 14.2693Z" fill="#608C9F"/>
</svg>
