<svg width="27" height="17" viewBox="0 0 27 17" fill="none" xmlns="http://www.w3.org/2000/svg">
<path d="M13.8311 16.1758C14.4316 16.1758 14.9443 15.9414 15.4131 15.458L26.4287 4.19336C26.8096 3.8125 27 3.3584 27 2.81641C27 1.71777 26.1211 0.824219 25.0225 0.824219C24.4951 0.824219 23.9824 1.05859 23.5869 1.4541L13.8457 11.4736L4.0752 1.4541C3.67969 1.05859 3.18164 0.824219 2.625 0.824219C1.54102 0.824219 0.662109 1.71777 0.662109 2.81641C0.662109 3.3584 0.867188 3.8125 1.2334 4.19336L12.249 15.4727C12.7324 15.9414 13.2305 16.1758 13.8311 16.1758Z" fill="white"/>
</svg>
