<svg width="24" height="24" viewBox="0 0 24 24" fill="none" xmlns="http://www.w3.org/2000/svg">
<path fill-rule="evenodd" clip-rule="evenodd" d="M6.41612 1.83309C6.57336 1.95658 6.74996 2.12273 6.95313 2.3234C7.38842 2.75181 7.89341 3.4382 8.32673 4.09713C8.76492 4.76344 9.17094 5.46488 9.39852 5.95309L9.39866 5.95341L9.39881 5.95372C9.5278 6.23111 9.64407 6.48249 9.72579 6.7028C9.80878 6.92653 9.87775 7.17263 9.8782 7.44118C9.87913 8.00333 9.57401 8.43719 9.2801 8.83736C9.19566 8.95232 9.12392 9.04652 9.06209 9.12772C8.9288 9.30273 8.84143 9.41746 8.77148 9.55016C8.70325 9.67959 8.68334 9.77304 8.71563 9.92348C8.7622 10.1404 8.96465 10.6152 9.35777 11.2364C9.73795 11.8372 10.2585 12.5148 10.8804 13.1347C11.5022 13.7546 12.169 14.2614 12.7578 14.6281C13.3645 15.006 13.8317 15.2 14.0549 15.2476C14.2102 15.2807 14.3072 15.2599 14.4369 15.1924C14.5737 15.1212 14.6954 15.0283 14.8847 14.8838C14.959 14.827 15.0439 14.7623 15.1441 14.6877L15.1443 14.6876L15.1519 14.682C15.5534 14.3837 15.9995 14.0522 16.565 14.0528C16.8444 14.0531 17.0952 14.132 17.316 14.2221C17.5269 14.3082 17.7693 14.4303 18.0351 14.5642L18.0574 14.5754C18.5234 14.8104 19.2162 15.2085 19.8869 15.6424C20.5458 16.0687 21.241 16.5662 21.6739 17.0024L21.6745 17.0031C21.8758 17.2063 22.0423 17.3829 22.1661 17.5401C22.2859 17.6922 22.4175 17.8891 22.473 18.1339C22.5354 18.4097 22.4788 18.6391 22.4207 18.7982C22.3945 18.87 22.3637 18.9388 22.3415 18.9881C22.338 18.9958 22.3347 19.0033 22.3314 19.0106C22.3108 19.0563 22.2928 19.0962 22.2737 19.1418L22.2732 19.1429L22.2728 19.144C22.0769 19.6086 21.8385 20.0542 21.5608 20.475L21.56 20.4763L21.5592 20.4776C21.0166 21.2928 20.5061 21.8254 19.7126 22.195C19.3003 22.387 18.7111 22.581 17.7956 22.4668C16.9149 22.357 15.7692 21.9671 14.2055 21.0914L14.2052 21.0911C11.7029 19.6878 9.96667 18.4779 7.72697 16.2445C5.49384 14.0176 4.3962 12.5642 2.85859 9.77085C1.31064 6.95878 1.31286 5.22466 1.75492 4.28004C2.12608 3.48691 2.66404 2.97881 3.47652 2.43901L3.47812 2.43795L3.47973 2.4369C3.90104 2.16009 4.34682 1.92244 4.81148 1.72694L4.81301 1.7263L4.81454 1.72566C4.86053 1.70655 4.90075 1.68852 4.94673 1.66791C4.95394 1.66467 4.9613 1.66138 4.96884 1.658C5.01825 1.63589 5.08716 1.60515 5.15885 1.57911C5.31777 1.52138 5.54675 1.46499 5.82202 1.52706C6.06676 1.58225 6.26365 1.71334 6.41612 1.83309ZM5.39179 3.11014C5.01264 3.26977 4.64886 3.46369 4.30498 3.68948C3.61861 4.14568 3.32437 4.46524 3.11351 4.91582C2.97338 5.21527 2.71403 6.39771 4.17265 9.04751C5.6416 11.7161 6.65334 13.0555 8.78615 15.1823C10.9123 17.3025 12.5332 18.4336 14.9385 19.7826C16.4105 20.607 17.3648 20.9015 17.9812 20.9784C18.5627 21.0509 18.8677 20.9338 19.0792 20.8353C19.5333 20.6237 19.8543 20.3315 20.3098 19.6475C20.5361 19.3043 20.7305 18.9409 20.8903 18.5621C20.9118 18.5105 20.933 18.4628 20.9509 18.4231C20.8809 18.3401 20.7738 18.2253 20.609 18.0588C20.2974 17.745 19.7192 17.3204 19.0721 16.9018C18.4368 16.4908 17.791 16.1211 17.3823 15.9149C17.0872 15.7663 16.8983 15.6718 16.7491 15.6109C16.604 15.5516 16.5618 15.5528 16.5634 15.5528C16.577 15.5528 16.5306 15.5263 16.0388 15.8917C15.9886 15.929 15.9343 15.9707 15.8768 16.0147C15.6577 16.1827 15.3923 16.3861 15.1294 16.523C14.7366 16.7275 14.2856 16.8305 13.742 16.7146C13.2663 16.6131 12.6246 16.3123 11.9648 15.9013C11.287 15.4791 10.5295 14.9029 9.82145 14.1971C9.11354 13.4914 8.52454 12.7248 8.09027 12.0386C7.66893 11.3728 7.35201 10.718 7.24904 10.2383C7.13181 9.69219 7.2387 9.24119 7.44456 8.85066C7.57723 8.599 7.77555 8.33898 7.93877 8.12497C7.98679 8.062 8.03178 8.00302 8.07116 7.9494C8.38645 7.52011 8.37905 7.45168 8.37824 7.44422C8.37822 7.44397 8.3782 7.44379 8.3782 7.44367C8.37817 7.42921 8.37484 7.37384 8.31943 7.22448C8.26277 7.07173 8.17456 6.87841 8.03875 6.58637C7.85329 6.18861 7.48975 5.55436 7.07345 4.92131C6.65232 4.28093 6.21797 3.70436 5.90057 3.3921L5.90003 3.39157L5.8995 3.39104C5.73202 3.22561 5.61684 3.1184 5.53368 3.04861C5.49327 3.06667 5.44458 3.08818 5.39179 3.11014Z" fill="white"/>
</svg>
