<svg width="20" height="21" viewBox="0 0 20 21" fill="none" xmlns="http://www.w3.org/2000/svg">
<path d="M9 5.5459H11C11.5304 5.5459 12.0391 5.75661 12.4142 6.13168C12.7893 6.50676 13 7.01547 13 7.5459V8.5459H11V7.5459H9V13.5459H11V12.5459H13V13.5459C13 14.0763 12.7893 14.585 12.4142 14.9601C12.0391 15.3352 11.5304 15.5459 11 15.5459H9C8.46957 15.5459 7.96086 15.3352 7.58579 14.9601C7.21071 14.585 7 14.0763 7 13.5459V7.5459C7 7.01547 7.21071 6.50676 7.58579 6.13168C7.96086 5.75661 8.46957 5.5459 9 5.5459ZM10 0.545898C11.3132 0.545898 12.6136 0.804556 13.8268 1.3071C15.0401 1.80965 16.1425 2.54624 17.0711 3.47483C17.9997 4.40342 18.7362 5.50581 19.2388 6.71906C19.7413 7.93232 20 9.23268 20 10.5459C20 13.1981 18.9464 15.7416 17.0711 17.617C15.1957 19.4923 12.6522 20.5459 10 20.5459C8.68678 20.5459 7.38642 20.2872 6.17317 19.7847C4.95991 19.2821 3.85752 18.5456 2.92893 17.617C1.05357 15.7416 0 13.1981 0 10.5459C0 7.89373 1.05357 5.35019 2.92893 3.47483C4.8043 1.59947 7.34784 0.545898 10 0.545898ZM10 2.5459C7.87827 2.5459 5.84344 3.38875 4.34315 4.88904C2.84285 6.38934 2 8.42417 2 10.5459C2 12.6676 2.84285 14.7025 4.34315 16.2028C5.84344 17.703 7.87827 18.5459 10 18.5459C12.1217 18.5459 14.1566 17.703 15.6569 16.2028C17.1571 14.7025 18 12.6676 18 10.5459C18 8.42417 17.1571 6.38934 15.6569 4.88904C14.1566 3.38875 12.1217 2.5459 10 2.5459Z" fill="white"/>
</svg>
