<svg width="106" height="76" viewBox="0 0 106 76" fill="none" xmlns="http://www.w3.org/2000/svg">
<path fill-rule="evenodd" clip-rule="evenodd" d="M40.4444 37.4427C40.4444 26.5062 31.3891 17.6411 20.2201 17.6411C9.05105 17.6411 0 26.5188 0 37.4427V74.8855H7.52493V52.8518C11.1352 55.7059 15.6052 57.254 20.2074 57.2442C31.3764 57.2442 40.4317 48.3665 40.4317 37.4427H40.4444ZM7.66443 37.4427C7.66443 30.6533 13.287 25.1491 20.2201 25.1491C27.1531 25.1491 32.7757 30.6449 32.7757 37.4427C32.7757 44.2405 27.1574 49.7362 20.2201 49.7362C13.2828 49.7362 7.66443 44.232 7.66443 37.4427Z" fill="white"/>
<path fill-rule="evenodd" clip-rule="evenodd" d="M32.7758 37.4428C32.7758 48.3793 41.831 57.2444 53 57.2444C64.1691 57.2444 73.2201 48.3667 73.2201 37.4428V0H65.6952V22.0336C62.0849 19.1796 57.6149 17.6315 53.0127 17.6413C41.8437 17.6413 32.7884 26.519 32.7884 37.4428H32.7758ZM65.5557 37.4428C65.5557 44.2322 59.9331 49.7364 53 49.7364C46.067 49.7364 40.4444 44.2406 40.4444 37.4428C40.4444 30.645 46.0627 25.1493 53 25.1493C59.9373 25.1493 65.5557 30.645 65.5557 37.4428Z" fill="white"/>
<path fill-rule="evenodd" clip-rule="evenodd" d="M65.5558 37.4428C65.5558 48.3793 74.6068 57.2444 85.7758 57.2444C96.9449 57.2444 106 48.3667 106 37.4428V0H98.4752V22.0336C94.8644 19.1805 90.3947 17.6325 85.7928 17.6413C74.6237 17.6413 65.5727 26.519 65.5727 37.4428H65.5558ZM98.3315 37.4428C98.3315 44.2322 92.7131 49.7364 85.7758 49.7364C78.8385 49.7364 73.2202 44.2406 73.2202 37.4428C73.2202 30.645 78.8428 25.1493 85.7758 25.1493C92.7089 25.1493 98.3315 30.6535 98.3315 37.4428Z" fill="white"/>
<path fill-rule="evenodd" clip-rule="evenodd" d="M18.3469 67.2303H15.3877V65.8141H22.9549V67.2303H19.9745V74.9708H18.3385L18.3469 67.2303ZM31.3591 65.8141H37.2776V67.2472H33.0121V69.6484H36.5843V71.0519H33.0121V73.5335H37.3875V74.9708H31.3591V65.8141ZM45.9144 73.6011C46.1469 73.6307 46.4005 73.6561 46.6711 73.6814C46.9416 73.7068 47.1699 73.7195 47.4743 73.7322C47.7787 73.7449 48.0873 73.7322 48.4255 73.7322C48.7794 73.7391 49.1331 73.7136 49.4824 73.6561C49.6976 73.6202 49.9024 73.538 50.0827 73.4151C50.2126 73.3199 50.3052 73.1823 50.3448 73.0262C50.3879 72.8535 50.4078 72.6757 50.404 72.4977C50.4043 72.3564 50.3958 72.2152 50.3786 72.075C50.3677 71.9509 50.3287 71.8309 50.2644 71.7241C50.2005 71.6178 50.1139 71.5269 50.0108 71.4578C49.8711 71.3725 49.7183 71.3111 49.5585 71.276L47.5504 70.7898C47.2698 70.7266 47.0004 70.6211 46.7514 70.477C46.5387 70.3545 46.3566 70.1854 46.2188 69.9824C46.0751 69.7593 45.9747 69.5112 45.9228 69.251C45.8557 68.9214 45.8245 68.5855 45.8298 68.2491C45.8194 67.8463 45.8943 67.4457 46.0496 67.0739C46.1877 66.7544 46.4009 66.4731 46.6711 66.2538C46.9612 66.0314 47.2934 65.8703 47.6476 65.7803C48.0614 65.6715 48.488 65.6189 48.9159 65.6239C49.2748 65.6219 49.6335 65.6431 49.9897 65.6873C50.311 65.7253 50.5942 65.7718 50.8352 65.8183C51.0761 65.8648 51.3594 65.9367 51.5877 66.0043V67.1923L50.9324 67.1246C50.7337 67.0992 50.5096 67.0823 50.2687 67.0697C50.0277 67.057 49.7698 67.0443 49.5035 67.0443C49.0808 67.0443 48.7595 67.0443 48.5016 67.0823C48.2853 67.0938 48.0737 67.1499 47.8801 67.2472C47.7353 67.3176 47.6221 67.4398 47.5631 67.5896C47.496 67.781 47.4644 67.983 47.4701 68.1857C47.4691 68.3088 47.4775 68.4317 47.4954 68.5535C47.5109 68.6535 47.5484 68.7488 47.6054 68.8325C47.6714 68.921 47.7567 68.9933 47.8548 69.0439C47.9881 69.1176 48.1301 69.1744 48.2775 69.213L50.1461 69.7118C50.3623 69.7682 50.5754 69.836 50.7844 69.9148C50.9557 69.9754 51.1179 70.0593 51.2664 70.1642C51.4027 70.2563 51.5239 70.3689 51.6257 70.4981C51.727 70.6392 51.8068 70.7945 51.8624 70.9589C51.9271 71.1623 51.9697 71.3721 51.9893 71.5846C52.0201 71.8583 52.0342 72.1336 52.0315 72.409C52.0402 72.8355 51.9962 73.2615 51.9005 73.6772C51.8191 74.0032 51.6425 74.2975 51.3932 74.5227C51.0982 74.7678 50.7465 74.935 50.3701 75.0089C49.8147 75.1282 49.2471 75.1821 48.6791 75.1695C48.2371 75.173 47.7953 75.1504 47.3559 75.1019C47.0716 75.0663 46.7894 75.0155 46.5104 74.9497C46.3023 74.9027 46.1007 74.8303 45.9101 74.7341L45.9144 73.6011ZM62.8243 67.2303H59.8651V65.8141H67.4323V67.2303H64.4519V74.9708H62.8158L62.8243 67.2303ZM71.757 74.0746C71.7521 73.9098 71.7677 73.7451 71.8035 73.5842C71.827 73.4711 71.8845 73.3678 71.9683 73.2883C72.0591 73.2093 72.1706 73.1579 72.2896 73.1403C72.4587 73.1122 72.6299 73.0995 72.8012 73.1023C72.9767 73.0996 73.1521 73.1123 73.3254 73.1403C73.4444 73.1579 73.5559 73.2093 73.6467 73.2883C73.7305 73.3678 73.7881 73.4711 73.8115 73.5842C73.849 73.7449 73.866 73.9097 73.8623 74.0746C73.8661 74.2381 73.8491 74.4015 73.8115 74.5608C73.7881 74.6764 73.7307 74.7824 73.6467 74.8651C73.5552 74.9438 73.4442 74.9963 73.3254 75.0173C73.1525 75.0491 72.9769 75.0633 72.8012 75.0596C72.6297 75.0634 72.4582 75.0492 72.2896 75.0173C72.1708 74.9963 72.0598 74.9438 71.9683 74.8651C71.8867 74.7773 71.8336 74.6667 71.8162 74.5481C71.7785 74.3931 71.7601 74.2341 71.7612 74.0746H71.757ZM82.8964 65.8141H84.5451V69.5554H86.0628L88.3583 65.8141H90.2691L87.5255 70.2403L90.4171 74.9708H88.4809L86.0543 70.9928H84.5367V74.9708H82.8879L82.8964 65.8141ZM98.369 73.9647L103.522 67.2599H98.6565V65.8268H105.94V66.8456L100.829 73.5335H106V74.9708H98.3901L98.369 73.9647Z" fill="#959595"/>
<path fill-rule="evenodd" clip-rule="evenodd" d="M20.0889 33.2747C20.8687 33.2913 21.6262 33.5378 22.2665 33.9833C22.9068 34.4287 23.4013 35.0533 23.688 35.7786C23.9748 36.504 24.041 37.2979 23.8784 38.0607C23.7158 38.8236 23.3316 39.5214 22.774 40.0668C22.2164 40.6122 21.5102 40.9808 20.7439 41.1264C19.9777 41.2721 19.1854 41.1882 18.4666 40.8855C17.7478 40.5827 17.1344 40.0744 16.7033 39.4244C16.2721 38.7744 16.0425 38.0116 16.0432 37.2316C16.0487 36.7061 16.1577 36.1868 16.3641 35.7034C16.5704 35.22 16.8701 34.7821 17.2458 34.4146C17.6215 34.0471 18.066 33.7572 18.5539 33.5616C19.0417 33.3661 19.5633 33.2685 20.0889 33.2747Z" fill="#069139"/>
<path fill-rule="evenodd" clip-rule="evenodd" d="M53.1904 33.6218C53.97 33.6385 54.7274 33.8848 55.3676 34.3301C56.0077 34.7753 56.5023 35.3996 56.7892 36.1248C57.076 36.8499 57.1425 37.6435 56.9803 38.4063C56.818 39.169 56.4342 39.8669 55.877 40.4124C55.3198 40.958 54.614 41.3269 53.848 41.4731C53.082 41.6192 52.29 41.5359 51.5711 41.2338C50.8522 40.9317 50.2384 40.4241 49.8068 39.7746C49.3752 39.1252 49.1448 38.3628 49.1447 37.583C49.1502 37.0572 49.2592 36.5377 49.4655 36.0541C49.6718 35.5705 49.9714 35.1323 50.3471 34.7644C50.7227 34.3966 51.1672 34.1064 51.6551 33.9103C52.1429 33.7143 52.6646 33.6162 53.1904 33.6218Z" fill="#FEEB17"/>
<path fill-rule="evenodd" clip-rule="evenodd" d="M85.7926 34.1116C86.5722 34.1282 87.3296 34.3746 87.9698 34.8199C88.61 35.2651 89.1045 35.8894 89.3914 36.6145C89.6783 37.3397 89.7448 38.1333 89.5825 38.8961C89.4202 39.6588 89.0365 40.3567 88.4793 40.9022C87.9221 41.4478 87.2163 41.8167 86.4503 41.9628C85.6843 42.109 84.8922 42.0257 84.1733 41.7236C83.4544 41.4215 82.8407 40.9139 82.409 40.2644C81.9774 39.615 81.7471 38.8526 81.7469 38.0728C81.7519 37.5468 81.8605 37.0271 82.0666 36.5432C82.2727 36.0594 82.5723 35.6209 82.9481 35.253C83.3239 34.885 83.7685 34.5948 84.2566 34.399C84.7448 34.2031 85.2667 34.1055 85.7926 34.1116Z" fill="#E3061A"/>
</svg>
