<svg width="1920" height="1064" viewBox="0 0 1920 1064" fill="none" xmlns="http://www.w3.org/2000/svg">
<g opacity="0.12" filter="url(#filter0_d_1_22)">
<path d="M32.1681 400.57C19.9919 394.233 -0.703509 396.459 -10.794 398.626L-162.454 417.203L-177.949 290.701L-31.608 272.775C-0.194917 266.678 45.9698 267.144 89.2079 289.65C138.032 315.063 174.094 363.943 183.051 437.068L232.967 844.584C233.161 846.168 233.894 849.654 235.63 853.724C237.328 857.703 239.419 860.924 241.537 863.192C243.46 865.251 245.413 866.571 247.799 867.442C250.147 868.298 255.245 869.572 264.644 868.421L523.115 836.761C531.492 835.735 539.011 834.017 545.703 827.616C555.078 821.399 552.932 805.392 552.932 805.392L503.339 400.511C497.877 373.333 495.06 332.078 506.845 292.677C513.195 271.448 524.592 248.162 544.711 228.84C565.499 208.874 592.304 196.353 623.403 192.544L909.599 157.488C951.161 152.397 995.072 162.154 1028.09 199.621C1056.91 232.325 1069.93 278.246 1075.99 327.694L1126.39 739.192L1126.37 743.204C1126.37 744.191 1126.6 746.791 1127.58 749.783C1128.52 752.639 1129.69 754.487 1130.62 755.521C1131.26 756.241 1132.29 757.219 1134.93 758.112C1137.83 759.095 1144.71 760.623 1157.58 759.047L1466.94 721.153C1477.62 719.845 1482.38 709.505 1480.21 691.811L1430.62 286.93C1425.16 259.751 1422.34 218.497 1434.12 179.096C1440.47 157.867 1451.87 134.581 1471.99 115.259C1492.78 95.2929 1519.58 82.7722 1550.68 78.9629L1825.43 45.3097L1825.43 45.3092C1856.52 41.4998 1895.48 50.6353 1928.31 79.3986C1961.92 108.849 1984.33 154.37 1991.82 215.515L2041.73 623.031C2042.02 625.378 2046.03 648.911 2061.96 648.27L2268.02 623.03L2283.52 749.532L2077.46 774.772C2021.34 781.645 1978.79 758.141 1952.26 725.935C1928.31 696.872 1918.14 662.303 1915.23 638.526L1865.31 231.01C1858.47 175.179 1842.28 171.646 1813.98 175.112L1582.61 203.452C1559.31 206.306 1550.51 219.659 1553.77 246.291L1556.44 265.898L1606.71 676.316C1619.35 779.488 1546.75 831.59 1503.8 844.184L1498.79 845.652L1173.07 885.549C1114.47 892.727 1066.85 875.536 1035.45 840.296C1008.72 810.285 999.827 773.918 998.992 747.383L949.483 343.189C944.447 302.075 943.868 297.345 939.322 289.454C936.594 284.72 929.122 283.497 925.095 283.99L673.796 314.772C643.835 318.441 621.361 328.061 629.163 379.479L679.434 789.897C686.228 845.36 663.02 887.943 634.171 915.537C607.205 941.33 574.491 955.409 551.14 961.244L547.334 962.195L280.139 994.923C223.189 1001.9 178.285 982.188 148.394 950.182C121.213 921.078 109.571 885.439 106.465 860.079L56.5488 452.563C52.195 417.018 40.227 404.765 32.1681 400.57Z" fill="#042A3B"/>
<path d="M-170.061 353.935L-21.2386 335.706C20.2747 326.791 106.629 336.129 119.94 444.798C133.251 553.468 158.764 761.755 169.856 852.315C173.554 882.501 199.265 940.629 272.532 931.655C345.798 922.681 478.593 906.415 535.833 899.404C565.898 891.891 624.088 861.018 616.323 797.628C608.559 734.237 579.811 499.537 566.407 390.111C557.507 349.073 558.024 264.752 631.29 255.778C704.557 246.804 852.616 228.668 917.487 220.722C969.225 214.385 1001.78 244.862 1012.87 335.424C1023.97 425.986 1050.77 644.836 1062.79 742.94C1062.67 773.594 1083.04 832.377 1165.47 822.281C1247.89 812.185 1413.5 791.899 1486.01 783.018C1508.44 776.44 1551.37 747.437 1543.6 684.046C1535.84 620.656 1507.09 385.956 1493.69 276.53C1484.79 235.492 1485.3 151.171 1558.57 142.197C1631.83 133.223 1772.26 116.022 1833.32 108.543C1860.03 105.27 1916.5 123.628 1928.7 223.245C1940.91 322.863 1967.07 536.43 1978.62 630.761C1982.32 660.948 2005.74 719.356 2069.85 711.504C2133.96 703.651 2233.93 691.405 2275.91 686.264" stroke="white" stroke-width="2" stroke-dasharray="20 20"/>
<path d="M-176.273 303.204L-12.6218 283.159C28.8916 274.244 150.288 302.834 163.599 411.504C176.91 520.174 202.05 725.418 213.143 815.978C216.84 846.164 210.115 887.809 266.32 880.925C339.586 871.951 472.381 855.685 529.621 848.673C559.686 841.161 574.614 829.144 565.213 752.397C557.448 689.006 528.7 454.307 515.297 344.881C506.397 303.842 551.812 214.022 625.078 205.048C698.345 196.074 851.299 177.338 916.17 169.392C999.395 159.198 1049.28 235.439 1056.21 292.032C1067.31 382.594 1092.49 588.234 1104.51 686.339C1112.69 753.099 1115.6 776.897 1159.25 771.55C1241.68 761.454 1358.91 747.094 1431.42 738.214C1473.47 733.062 1501.06 737.628 1494.54 684.364C1486.77 620.973 1453.71 351.033 1440.31 241.607C1432.34 176.584 1482.07 100.076 1555.34 91.1015C1628.61 82.1272 1771.12 64.6705 1832.18 57.1919C1893.23 49.7133 1964.96 113.142 1974.95 194.702C1984.94 276.263 2009.86 479.697 2021.41 574.029C2034.28 679.073 2045.82 662.956 2125.96 653.14C2190.06 645.288 2227.72 640.675 2269.7 635.534" stroke="white" stroke-width="2"/>
<path d="M-163.657 406.201L-38.2896 390.845C21.6326 383.506 60.3298 368.401 71.3394 458.283C82.349 548.166 110.606 778.857 121.699 869.416C130.873 944.319 218.125 991.37 274.33 984.486C347.597 975.511 445.774 963.486 519.012 954.515C592.25 945.544 674.542 886.352 665.141 809.605C657.377 746.215 632.864 546.09 619.46 436.664C607.035 335.222 599.186 312.761 672.453 303.787C745.719 294.813 838.947 283.393 903.818 275.447C940.437 270.962 957.462 272.024 964.394 328.617C975.487 419.179 1007.81 683.077 1019.83 781.182C1028.01 847.942 1112.87 881.774 1156.52 876.428C1238.94 866.332 1399.83 846.625 1472.33 837.744C1514.38 832.593 1605.58 790.895 1593.32 690.845C1585.56 627.455 1561.66 432.323 1548.25 322.897C1529.71 171.52 1526.34 199.195 1664.5 182.273C1737.76 173.299 1734.94 173.645 1795.99 166.166C1857.05 158.688 1871.27 160.093 1881.26 241.654C1891.25 323.215 1916.81 531.826 1928.36 626.157C1936.11 689.408 1988.77 774.486 2078.65 763.477C2142.76 755.624 2240.34 743.672 2282.31 738.53" stroke="white" stroke-width="2"/>
</g>
<defs>
<filter id="filter0_d_1_22" x="-236.949" y="11.4885" width="2561.47" height="1051.84" filterUnits="userSpaceOnUse" color-interpolation-filters="sRGB">
<feFlood flood-opacity="0" result="BackgroundImageFix"/>
<feColorMatrix in="SourceAlpha" type="matrix" values="0 0 0 0 0 0 0 0 0 0 0 0 0 0 0 0 0 0 127 0" result="hardAlpha"/>
<feOffset dx="-9" dy="17"/>
<feGaussianBlur stdDeviation="25"/>
<feComposite in2="hardAlpha" operator="out"/>
<feColorMatrix type="matrix" values="0 0 0 0 0 0 0 0 0 0 0 0 0 0 0 0 0 0 0.1 0"/>
<feBlend mode="normal" in2="BackgroundImageFix" result="effect1_dropShadow_1_22"/>
<feBlend mode="normal" in="SourceGraphic" in2="effect1_dropShadow_1_22" result="shape"/>
</filter>
</defs>
</svg>
