<svg width="1920" height="1064" viewBox="0 0 1920 1064" fill="none" xmlns="http://www.w3.org/2000/svg">
<g opacity="0.12" filter="url(#filter0_d_1_27)">
<path d="M-21.8319 400.57C-34.0081 394.232 -54.7035 396.458 -64.794 398.625L-216.454 417.202L-231.949 290.7L-85.608 272.775C-54.1949 266.677 -8.03019 267.143 35.2079 289.649C84.0323 315.062 120.094 363.942 129.051 437.067L178.967 844.583C179.161 846.167 179.894 849.653 181.63 853.723C183.328 857.702 185.419 860.923 187.537 863.191C189.46 865.25 191.413 866.57 193.799 867.441C196.147 868.297 201.245 869.571 210.644 868.42L469.115 836.76C477.492 835.734 485.011 834.016 491.703 827.615C501.078 821.398 498.932 805.391 498.932 805.391L449.339 400.51C443.877 373.332 441.06 332.077 452.845 292.676C459.195 271.447 470.592 248.161 490.711 228.839C511.499 208.873 538.304 196.352 569.403 192.543L855.599 157.487C897.161 152.396 941.072 162.153 974.09 199.62C1002.91 232.324 1015.93 278.245 1021.99 327.693L1072.39 739.191L1072.37 743.203C1072.37 744.19 1072.6 746.79 1073.58 749.782C1074.52 752.638 1075.69 754.486 1076.62 755.52C1077.26 756.24 1078.29 757.218 1080.93 758.111C1083.83 759.094 1090.71 760.622 1103.58 759.046L1412.94 721.152C1423.62 719.844 1428.38 709.504 1426.21 691.81L1376.62 286.929C1371.16 259.75 1368.34 218.496 1380.12 179.095C1386.47 157.866 1397.87 134.58 1417.99 115.258C1438.78 95.2919 1465.58 82.7712 1496.68 78.9619L1771.43 45.3087L1771.43 45.3083C1802.52 41.4988 1841.48 50.6343 1874.31 79.3976C1907.92 108.848 1930.33 154.369 1937.82 215.514L1987.73 623.03C1988.02 625.377 1992.03 648.91 2007.96 648.269L2214.02 623.029L2229.52 749.531L2023.46 774.771C1967.34 781.644 1924.79 758.14 1898.26 725.934C1874.31 696.871 1864.14 662.302 1861.23 638.525L1811.31 231.009C1804.47 175.178 1788.28 171.645 1759.98 175.111L1528.61 203.451C1505.31 206.305 1496.51 219.658 1499.77 246.29L1502.44 265.897L1552.71 676.315C1565.35 779.487 1492.75 831.589 1449.8 844.183L1444.79 845.651L1119.07 885.548C1060.47 892.726 1012.85 875.535 981.453 840.295C954.718 810.284 945.827 773.918 944.992 747.382L895.483 343.188L895.483 343.183C890.447 302.073 889.868 297.344 885.322 289.453C882.594 284.719 875.122 283.496 871.095 283.989L619.796 314.771C589.835 318.44 567.361 328.06 575.163 379.478L625.434 789.896C632.228 845.359 609.02 887.942 580.171 915.536C553.205 941.329 520.491 955.408 497.14 961.243L493.334 962.194L226.139 994.922C169.189 1001.9 124.285 982.187 94.3937 950.181C67.2126 921.077 55.5713 885.438 52.465 860.078L2.54885 452.562C-1.80496 417.017 -13.773 404.764 -21.8319 400.57Z" fill="#042A3B"/>
<path d="M-224.061 353.934L-75.2386 335.705C-33.7253 326.79 52.6292 336.128 65.94 444.798C79.2508 553.467 104.764 761.754 115.856 852.314C119.554 882.5 145.265 940.628 218.532 931.654C291.798 922.68 424.593 906.414 481.833 899.403C511.898 891.89 570.088 861.017 562.323 797.627C554.559 734.236 525.811 499.536 512.407 390.11C503.507 349.072 504.024 264.751 577.29 255.777C650.557 246.803 798.616 228.667 863.487 220.721C915.225 214.384 947.781 244.861 958.874 335.423C969.967 425.985 996.774 644.835 1008.79 742.939C1008.67 773.593 1029.04 832.376 1111.47 822.28C1193.89 812.184 1359.5 791.898 1432.01 783.017C1454.44 776.439 1497.37 747.436 1489.6 684.045C1481.84 620.655 1453.09 385.955 1439.68 276.529C1430.79 235.491 1431.3 151.17 1504.57 142.196C1577.83 133.222 1718.26 116.021 1779.32 108.542C1806.03 105.269 1862.5 123.627 1874.7 223.244C1886.91 322.862 1913.07 536.429 1924.62 630.76C1928.32 660.947 1951.74 719.355 2015.85 711.503C2079.96 703.65 2179.93 691.404 2221.91 686.263" stroke="white" stroke-width="2" stroke-dasharray="20 20"/>
<path d="M-230.273 303.204L-66.6218 283.158C-25.1084 274.243 96.2883 302.833 109.599 411.503C122.91 520.173 148.05 725.417 159.143 815.977C162.84 846.163 156.115 887.808 212.32 880.924C285.586 871.95 418.381 855.684 475.621 848.673C505.686 841.16 520.614 829.143 511.213 752.396C503.448 689.005 474.7 454.306 461.297 344.88C452.397 303.841 497.812 214.021 571.078 205.047C644.345 196.073 797.299 177.338 862.17 169.392C945.395 159.197 995.281 235.438 1002.21 292.031C1013.31 382.593 1038.49 588.233 1050.51 686.338C1058.69 753.098 1061.6 776.896 1105.25 771.55C1187.68 761.453 1304.91 747.093 1377.42 738.213C1419.47 733.061 1447.06 737.627 1440.54 684.363C1432.77 620.972 1399.71 351.032 1386.31 241.606C1378.34 176.583 1428.07 100.075 1501.34 91.1005C1574.61 82.1262 1717.12 64.6695 1778.18 57.1909C1839.23 49.7123 1910.96 113.141 1920.95 194.701C1930.94 276.262 1955.86 479.696 1967.41 574.028C1980.28 679.072 1991.82 662.955 2071.96 653.139C2136.06 645.287 2173.72 640.674 2215.7 635.533" stroke="white" stroke-width="2"/>
<path d="M-217.657 406.2L-92.2896 390.844C-32.3674 383.505 6.32985 368.4 17.3394 458.282C28.349 548.165 56.606 778.856 67.6986 869.415C76.8733 944.318 164.125 991.369 220.33 984.485C293.597 975.51 391.774 963.485 465.012 954.514C538.25 945.543 620.542 886.352 611.141 809.604C603.377 746.214 578.864 546.089 565.46 436.663C553.035 335.221 545.186 312.76 618.453 303.786C691.719 294.812 784.947 283.392 849.818 275.446C886.437 270.961 903.462 272.023 910.394 328.616C921.487 419.178 953.812 683.076 965.828 781.181C974.006 847.941 1058.87 881.774 1102.52 876.427C1184.94 866.331 1345.83 846.624 1418.33 837.743C1460.38 832.592 1551.58 790.894 1539.32 690.844C1531.56 627.454 1507.66 432.322 1494.25 322.896C1475.71 171.519 1472.34 199.194 1610.5 182.272C1683.76 173.298 1680.94 173.644 1741.99 166.165C1803.05 158.687 1817.27 160.092 1827.26 241.653C1837.25 323.214 1862.81 531.825 1874.36 626.156C1882.11 689.407 1934.77 774.485 2024.65 763.476C2088.76 755.623 2186.34 743.671 2228.31 738.529" stroke="white" stroke-width="2"/>
</g>
<defs>
<filter id="filter0_d_1_27" x="-290.949" y="11.4875" width="2561.47" height="1051.84" filterUnits="userSpaceOnUse" color-interpolation-filters="sRGB">
<feFlood flood-opacity="0" result="BackgroundImageFix"/>
<feColorMatrix in="SourceAlpha" type="matrix" values="0 0 0 0 0 0 0 0 0 0 0 0 0 0 0 0 0 0 127 0" result="hardAlpha"/>
<feOffset dx="-9" dy="17"/>
<feGaussianBlur stdDeviation="25"/>
<feComposite in2="hardAlpha" operator="out"/>
<feColorMatrix type="matrix" values="0 0 0 0 0 0 0 0 0 0 0 0 0 0 0 0 0 0 0.1 0"/>
<feBlend mode="normal" in2="BackgroundImageFix" result="effect1_dropShadow_1_27"/>
<feBlend mode="normal" in="SourceGraphic" in2="effect1_dropShadow_1_27" result="shape"/>
</filter>
</defs>
</svg>
