<svg width="25" height="25" viewBox="0 0 25 25" fill="none" xmlns="http://www.w3.org/2000/svg">
<path fill-rule="evenodd" clip-rule="evenodd" d="M25 12.5C25 19.4036 19.4036 25 12.5 25C5.59644 25 0 19.4036 0 12.5C0 5.59644 5.59644 0 12.5 0C19.4036 0 25 5.59644 25 12.5ZM14.0625 6.25C14.0625 7.11294 13.363 7.8125 12.5 7.8125C11.6371 7.8125 10.9375 7.11294 10.9375 6.25C10.9375 5.38706 11.6371 4.6875 12.5 4.6875C13.363 4.6875 14.0625 5.38706 14.0625 6.25ZM10.9375 10.9375C10.0746 10.9375 9.375 11.6371 9.375 12.5C9.375 13.363 10.0746 14.0625 10.9375 14.0625V18.75C10.9375 19.613 11.6371 20.3125 12.5 20.3125H14.0625C14.9255 20.3125 15.625 19.613 15.625 18.75C15.625 17.887 14.9255 17.1875 14.0625 17.1875V12.5C14.0625 11.6371 13.363 10.9375 12.5 10.9375H10.9375Z" fill="white"/>
</svg>
