<svg width="16" height="16" viewBox="0 0 16 16" fill="none" xmlns="http://www.w3.org/2000/svg">
<path fill-rule="evenodd" clip-rule="evenodd" d="M8.88889 0.888889C8.88889 0.397969 9.28686 0 9.77778 0H15.1111C15.602 0 16 0.397969 16 0.888889V6.22222C16 6.71314 15.602 7.11111 15.1111 7.11111C14.6202 7.11111 14.2222 6.71314 14.2222 6.22222V3.03486L6.85076 10.4063C6.50363 10.7535 5.94082 10.7535 5.59368 10.4063C5.24655 10.0592 5.24655 9.49637 5.59368 9.14924L12.9651 1.77778H9.77778C9.28686 1.77778 8.88889 1.37981 8.88889 0.888889ZM0 4.44445C0 2.97168 1.19391 1.77778 2.66667 1.77778H6.22222C6.71314 1.77778 7.11111 2.17575 7.11111 2.66667C7.11111 3.15759 6.71314 3.55556 6.22222 3.55556H2.66667C2.17575 3.55556 1.77778 3.95352 1.77778 4.44445V13.3333C1.77778 13.8243 2.17574 14.2222 2.66667 14.2222H11.5556C12.0465 14.2222 12.4444 13.8243 12.4444 13.3333V9.77778C12.4444 9.28686 12.8424 8.88889 13.3333 8.88889C13.8243 8.88889 14.2222 9.28686 14.2222 9.77778V13.3333C14.2222 14.8061 13.0283 16 11.5556 16H2.66667C1.19392 16 0 14.8061 0 13.3333V4.44445Z" fill="white"/>
</svg>
