<svg width="28" height="27" viewBox="0 0 28 27" fill="none" xmlns="http://www.w3.org/2000/svg">
<path d="M12.2091 1.31009C12.7728 -0.436697 15.2272 -0.436697 15.7908 1.31009L17.8049 7.55128C18.057 8.33248 18.7799 8.86138 19.5958 8.86138H26.1134C27.9375 8.86138 28.6959 11.2117 27.2202 12.2912L21.9473 16.1485C21.2873 16.6312 21.0111 17.4871 21.2632 18.2682L23.2773 24.5094C23.8409 26.2562 21.8554 27.7089 20.3795 26.6293L15.1068 22.7719C14.4468 22.2892 13.5531 22.2892 12.8932 22.7719L7.62034 26.6293C6.14459 27.7089 4.15897 26.2562 4.72266 24.5094L6.73669 18.2682C6.98877 17.4871 6.71261 16.6312 6.05264 16.1485L0.77983 12.2912C-0.69594 11.2117 0.0625074 8.86138 1.88664 8.86138H8.40419C9.21998 8.86138 9.94297 8.33248 10.1951 7.55128L12.2091 1.31009Z" fill="white"/>
</svg>
