<svg width="20" height="19" viewBox="0 0 20 19" fill="none" xmlns="http://www.w3.org/2000/svg">
<path d="M12.9727 9.625C12.9727 10.2183 12.7967 10.7984 12.4671 11.2917C12.1374 11.7851 11.6689 12.1696 11.1207 12.3966C10.5725 12.6237 9.96933 12.6831 9.38739 12.5674C8.80544 12.4516 8.27089 12.1659 7.85134 11.7463C7.43178 11.3268 7.14606 10.7922 7.0303 10.2103C6.91454 9.62833 6.97395 9.02513 7.20102 8.47695C7.42808 7.92877 7.8126 7.46024 8.30595 7.13059C8.79929 6.80095 9.37931 6.625 9.97266 6.625C10.7675 6.62747 11.5292 6.94434 12.0912 7.50641C12.6533 8.06849 12.9702 8.83011 12.9727 9.625ZM19.3477 5.5V13.75C19.3477 15.1424 18.7945 16.4777 17.81 17.4623C16.8254 18.4469 15.49 19 14.0977 19H5.84766C4.45527 19 3.11991 18.4469 2.13535 17.4623C1.15078 16.4777 0.597656 15.1424 0.597656 13.75V5.5C0.597656 4.10761 1.15078 2.77226 2.13535 1.78769C3.11991 0.803123 4.45527 0.25 5.84766 0.25H14.0977C15.49 0.25 16.8254 0.803123 17.81 1.78769C18.7945 2.77226 19.3477 4.10761 19.3477 5.5ZM14.4727 9.625C14.4727 8.73498 14.2087 7.86495 13.7143 7.12493C13.2198 6.38491 12.517 5.80814 11.6947 5.46754C10.8725 5.12695 9.96766 5.03783 9.09475 5.21147C8.22184 5.3851 7.42001 5.81368 6.79068 6.44302C6.16134 7.07236 5.73276 7.87418 5.55912 8.74709C5.38549 9.62001 5.4746 10.5248 5.8152 11.3471C6.15579 12.1693 6.73257 12.8721 7.47259 13.3666C8.21261 13.8611 9.08264 14.125 9.97266 14.125C11.1661 14.125 12.3107 13.6509 13.1546 12.807C13.9986 11.9631 14.4727 10.8185 14.4727 9.625ZM15.9727 4.75C15.9727 4.5275 15.9067 4.30999 15.7831 4.12498C15.6594 3.93998 15.4837 3.79578 15.2782 3.71064C15.0726 3.62549 14.8464 3.60321 14.6282 3.64662C14.41 3.69002 14.2095 3.79717 14.0522 3.9545C13.8948 4.11184 13.7877 4.31229 13.7443 4.53052C13.7009 4.74875 13.7231 4.97495 13.8083 5.18052C13.8934 5.38609 14.0376 5.56179 14.2226 5.6854C14.4076 5.80902 14.6252 5.875 14.8477 5.875C15.146 5.875 15.4322 5.75647 15.6432 5.5455C15.8541 5.33452 15.9727 5.04837 15.9727 4.75Z" fill="white"/>
</svg>
