<svg width="20" height="20" viewBox="0 0 20 20" fill="none" xmlns="http://www.w3.org/2000/svg">
<path fill-rule="evenodd" clip-rule="evenodd" d="M3 2C2.44771 2 2 2.44771 2 3V12.1707C2.31278 12.0602 2.64936 12 3 12H9.5C9.76522 12 10.0196 12.1054 10.2071 12.2929L10.9142 13H17.382L15.1056 8.44721C14.9648 8.16569 14.9648 7.83431 15.1056 7.55279L17.382 3H11V7C11 7.55228 10.5523 8 10 8C9.44771 8 9 7.55228 9 7V2H3ZM10.9142 1H19C19.3466 1 19.6684 1.17945 19.8506 1.47427C20.0329 1.76909 20.0494 2.13723 19.8944 2.44721L17.118 8L19.8944 13.5528C20.0494 13.8628 20.0329 14.2309 19.8506 14.5257C19.6684 14.8205 19.3466 15 19 15H10.5C10.2348 15 9.98043 14.8946 9.79289 14.7071L9.08578 14H3C2.4477 14 2 14.4477 2 15V19C2 19.5523 1.55228 20 1 20C0.447715 20 0 19.5523 0 19V3C0 1.34315 1.34315 0 3 0H9.5C9.76522 0 10.0196 0.105357 10.2071 0.292893L10.7067 0.792496C10.707 0.792761 10.7072 0.793026 10.7075 0.793291L10.9142 1Z" fill="white"/>
</svg>
