<svg width="25" height="18" viewBox="0 0 25 18" fill="none" xmlns="http://www.w3.org/2000/svg">
<path fill-rule="evenodd" clip-rule="evenodd" d="M9.86966 11.803V5.06L16.3537 8.443L9.86966 11.803ZM24.1077 3.891C24.1077 3.891 23.8727 2.237 23.1537 1.509C22.2407 0.553 21.2177 0.549 20.7487 0.493C17.3907 0.25 12.3527 0.25 12.3527 0.25H12.3427C12.3427 0.25 7.30466 0.25 3.94666 0.493C3.47666 0.548 2.45466 0.553 1.54066 1.509C0.821656 2.237 0.587656 3.891 0.587656 3.891C0.587656 3.891 0.347656 5.834 0.347656 7.775V9.597C0.347656 11.539 0.587656 13.481 0.587656 13.481C0.587656 13.481 0.821656 15.134 1.54066 15.863C2.45466 16.819 3.65366 16.789 4.18766 16.889C6.10766 17.073 12.3477 17.13 12.3477 17.13C12.3477 17.13 17.3907 17.123 20.7487 16.88C21.2187 16.824 22.2407 16.819 23.1537 15.863C23.8737 15.134 24.1077 13.481 24.1077 13.481C24.1077 13.481 24.3477 11.539 24.3477 9.596V7.776C24.3477 5.834 24.1077 3.891 24.1077 3.891Z" fill="white"/>
</svg>
