<svg width="18" height="20" viewBox="0 0 18 20" fill="none" xmlns="http://www.w3.org/2000/svg">
<path d="M15.0555 4.3562C14.9247 4.28922 14.7974 4.2158 14.6739 4.13621C14.3151 3.9012 13.986 3.62429 13.6939 3.31145C12.963 2.48309 12.69 1.64273 12.5895 1.05436H12.5935C12.5095 0.565984 12.5443 0.25 12.5495 0.25H9.22054V13.0006C9.22054 13.1718 9.22054 13.3409 9.21327 13.5081C9.21327 13.5289 9.21125 13.5481 9.21004 13.5705C9.21004 13.5797 9.21004 13.5893 9.20802 13.5989V13.6061C9.17293 14.0636 9.02487 14.5056 8.77688 14.8931C8.52888 15.2806 8.18855 15.6018 7.78581 15.8284C7.36607 16.065 6.89134 16.189 6.40843 16.1884C4.85741 16.1884 3.60036 14.9357 3.60036 13.3885C3.60036 11.8414 4.85741 10.5887 6.40843 10.5887C6.70203 10.5884 6.99382 10.6342 7.27298 10.7243L7.27702 7.36685C6.42957 7.25842 5.56864 7.32513 4.74853 7.56277C3.92842 7.80042 3.16693 8.20383 2.5121 8.74758C1.93832 9.24139 1.45594 9.8306 1.08667 10.4887C0.946142 10.7287 0.415945 11.693 0.351739 13.2582C0.311359 14.1465 0.580698 15.0669 0.709108 15.4472V15.4552C0.789869 15.6792 1.10282 16.4436 1.61283 17.088C2.02408 17.6048 2.50996 18.0589 3.05482 18.4355V18.4275L3.06289 18.4355C4.67448 19.5202 6.46133 19.449 6.46133 19.449C6.77064 19.4366 7.80681 19.449 8.9835 18.8967C10.2886 18.2843 11.0316 17.3719 11.0316 17.3719C11.5063 16.8268 11.8837 16.2055 12.1477 15.5348C12.449 14.7505 12.5495 13.8097 12.5495 13.4337V6.66928C12.5899 6.69328 13.1278 7.04566 13.1278 7.04566C13.1278 7.04566 13.9027 7.53764 15.1117 7.85802C15.979 8.08601 17.1477 8.13401 17.1477 8.13401V4.86057C16.7382 4.90457 15.9068 4.77657 15.0555 4.3562Z" fill="white"/>
</svg>
