<svg width="20" height="20" viewBox="0 0 20 20" fill="none" xmlns="http://www.w3.org/2000/svg">
<path d="M9.99844 0.25C4.69521 0.25 0.398438 4.54677 0.398438 9.85C0.398438 15.1532 4.69521 19.45 9.99844 19.45C15.3017 19.45 19.5984 15.1532 19.5984 9.85C19.5984 4.54677 15.3017 0.25 9.99844 0.25ZM14.7133 6.82677L13.1378 14.2513C13.0217 14.7777 12.7081 14.9055 12.2707 14.6577L9.8707 12.8887L8.71328 14.0035C8.58553 14.1313 8.47715 14.2397 8.22941 14.2397L8.39973 11.7971L12.8475 7.77903C13.041 7.60871 12.8049 7.51194 12.5494 7.68226L7.05263 11.1429L4.6836 10.4035C4.16876 10.241 4.15715 9.88871 4.79199 9.64097L14.0475 6.07194C14.4771 5.9171 14.8526 6.17645 14.7133 6.82677Z" fill="white"/>
</svg>
