<svg width="24" height="24" viewBox="0 0 24 24" fill="none" xmlns="http://www.w3.org/2000/svg">
<path fill-rule="evenodd" clip-rule="evenodd" d="M4.8125 4.81299C4.8125 2.43127 6.74328 0.500488 9.125 0.500488C10.2295 0.500488 11.237 0.91571 12 1.59859C12.763 0.91571 13.7704 0.500488 14.875 0.500488C17.2568 0.500488 19.1875 2.43127 19.1875 4.81299C19.1875 5.31703 19.101 5.80087 18.9421 6.25049H20.625C22.2129 6.25049 23.5 7.53767 23.5 9.12549C23.5 10.7133 22.2129 12.0005 20.625 12.0005H13.4375V10.563C13.4375 9.76909 12.7939 9.12549 12 9.12549C11.2061 9.12549 10.5625 9.76907 10.5625 10.563V12.0005H3.375C1.78718 12.0005 0.5 10.7133 0.5 9.12549C0.5 7.53767 1.78718 6.25049 3.375 6.25049H5.0579C4.89897 5.80087 4.8125 5.31703 4.8125 4.81299ZM10.5625 6.25049V4.81299C10.5625 4.01909 9.9189 3.37549 9.125 3.37549C8.3311 3.37549 7.6875 4.01909 7.6875 4.81299C7.6875 5.60689 8.3311 6.25049 9.125 6.25049H10.5625ZM14.875 6.25049C15.6689 6.25049 16.3125 5.60689 16.3125 4.81299C16.3125 4.01909 15.6689 3.37549 14.875 3.37549C14.0811 3.37549 13.4375 4.01909 13.4375 4.81299V6.25049H14.875Z" fill="#608C9F"/>
<path d="M10.5626 13.4371H1.93756V20.6246C1.93756 22.2124 3.22474 23.4996 4.81256 23.4996H10.5626V13.4371Z" fill="#608C9F"/>
<path d="M13.4376 23.4996H19.1876C20.7754 23.4996 22.0626 22.2124 22.0626 20.6246V13.4371H13.4376V23.4996Z" fill="#608C9F"/>
</svg>
